<svg width="26" height="20" viewBox="0 0 26 20" fill="none" xmlns="http://www.w3.org/2000/svg">
<path d="M26 1.25V6.25L13 11.25L0 6.25V1.25C0 0.918479 0.136964 0.600537 0.380761 0.366117C0.624558 0.131696 0.955219 0 1.3 0H24.7C25.0448 0 25.3754 0.131696 25.6192 0.366117C25.863 0.600537 26 0.918479 26 1.25ZM0 8.9425V18.75C0 19.0815 0.136964 19.3995 0.380761 19.6339C0.624558 19.8683 0.955219 20 1.3 20H24.7C25.0448 20 25.3754 19.8683 25.6192 19.6339C25.863 19.3995 26 19.0815 26 18.75V8.9425L13 13.9425L0 8.9425Z" fill="#A5A5A5"/>
</svg>
