<svg width="24" height="20" viewBox="0 0 24 20" fill="none" xmlns="http://www.w3.org/2000/svg">
<path fill-rule="evenodd" clip-rule="evenodd" d="M22.8136 0.0467681H22.58V0.0934628H22.3931V0.140157H22.2996V0.186926H22.1594V0.23362H22.0192V0.280388H21.9257V0.327083H21.7856V0.373851H21.6921V0.420546H21.5519V0.467314H21.4117V0.514008H21.3183V0.560777H21.1781V0.607471H21.0847V0.654166H20.9444V0.700934H20.8043V0.747702H20.7108V0.794397H20.5707V0.841091H20.4772V0.887859H20.337V0.934554H20.1968V0.981322H20.1033V1.02802H19.9632V1.07478H19.8229V1.12148H19.7295V1.16825H19.5893V1.21494H19.4959V1.26171H19.3557V1.3084H19.2155V1.3551H19.122V1.40187H18.9819V1.44856H18.8884V1.49533H18.7482V1.54203H18.608V1.58879H18.5145V1.63549H18.3744V1.68226H18.2809V1.72895H18.1407V1.77572H18.0005V1.82241H17.9071V1.86918H17.7669V1.91588H17.6267V1.96264H17.5332V2.00934H17.3931V2.05603H17.2996V2.1028H17.1594V2.1495H17.0192V2.19626H16.9258V2.24296H16.7856V2.28973H16.6921V2.33642H16.552V2.38319H16.4117V2.42988H16.3183V2.47665H16.1781V2.52335H16.0379V2.57012H15.9445V2.61681H15.8043V2.66358H15.7108V2.71027H15.5707V2.75697H15.4304V2.80374H15.337V2.85043H15.1968V2.8972H15.1033V2.94389H14.9632V2.99066H14.8229V3.03736H14.7295V3.08412H14.5893V3.13082H14.4959V3.17759H14.3557V3.22428H14.2155V3.27105H14.122V3.31774H13.9819V3.36451H13.8417V3.41121H13.7482V3.4579H13.608V3.50467H13.5145V3.55136H13.3744V3.59813H13.2342V3.64483H13.1408V3.69159H13.0005V3.73829H12.9071V3.78506H12.7669V3.83175H12.6267V3.87852H12.5332V3.92522H12.3931V3.97198H12.2529V4.01868H12.1594V4.06545H12.0192V4.11214H11.9257V4.15883H11.7856V4.2056H11.6454V4.2523H11.552V4.29907H11.4117V4.34576H11.3183V4.39253H11.1781V4.43922H11.038V4.48599H10.9445V4.53269H10.8043V4.57945H10.7108V4.62615H10.5707V4.67292H10.4304V4.71961H10.337V4.76638H10.1968V4.81307H10.1033V4.85977H9.96318V4.90654H9.82295V4.95323H9.72948V5H9.58933V5.04669H9.44917V5.09346H9.35571V5.14016H9.21548V5.18693H9.12201V5.23362H8.98186V5.28039H8.8417V5.32708H8.74824V5.37385H8.60801V5.42055H8.51454V5.46731H8.37438V5.51401H8.23423V5.5607H8.14077V5.60747H8.00053V5.65417H7.86038V5.70093H7.76691V5.74763H7.62676V5.7944H7.53329V5.84109H7.39306V5.88786H7.25291V5.93455H7.15944V5.98132H7.01921V6.02802H6.92582V6.07478H6.78559V6.12148H6.64543V6.16825H6.55197V6.21494H6.41174V6.26164H6.31828V6.3084H6.17812V6.3551H6.03796V6.40187H5.9445V6.44856H5.80427V6.49533H5.66411V6.54203H5.57065V6.58879H5.43049V6.63549H5.33703V6.68226H5.1968V6.72895H5.05664V6.77572H4.96318V6.82241H4.82302V6.86918H4.72956V6.91588H4.58933V6.96257H4.44917V7.00934H4.35571V7.05603H4.21548V7.1028H4.12209V7.1495H3.98186V7.19626H3.8417V7.24296H3.74824V7.28973H3.60801V7.33642H3.46785V7.38319H3.37438V7.42988H3.23423V7.47665H3.14076V7.52335H3.00053V7.57004H2.86038V7.61681H2.76691V7.66351H2.62676V7.71027H2.53329V7.75697H2.39306V7.80374H2.25291V7.85043H2.15944V7.8972H2.01928V7.94389H1.92582V7.99066H1.78559V8.03736H1.64543V8.08412H1.55197V8.13082H1.41174V8.17759H1.27158V8.22428H1.17812V8.27098H1.03796V8.31774H0.9445V8.36444H0.851037V8.41121H0.757575V8.4579H0.664112V8.50467H0.617417V8.55136H0.523954V8.59813H0.477186V8.64483H0.383724V8.6916H0.337029V8.73829H0.290261V8.78506H0.243566V8.83175H0.196798V8.87852H0.150103V8.97191H0.103409V9.06537H0.0566406V9.43922H0.103409V9.53269H0.150103V9.57945H0.196798V9.62615H0.243566V9.67284H0.290261V9.71961H0.337029V9.76631H0.430492V9.81307H0.477186V9.85977H0.617417V9.90654H0.710806V9.95323H0.804343V10H0.9445V10.0467H1.13143V10.0935H1.27158V10.1402H1.41174V10.1869H1.55197V10.2336H1.69213V10.2804H1.87905V10.3271H2.01928V10.3738H2.15944V10.4205H2.2996V10.4672H2.43983V10.514H2.62676V10.5607H2.76691V10.6075H2.90714V10.6542H3.0473V10.7009H3.23423V10.7476H3.37438V10.7944H3.51454V10.8411H3.65477V10.8879H3.79493V10.9346H3.98186V10.9813H4.12209V11.028H4.26224V11.0747H4.4024V11.1215H4.58933V11.1682H4.72956V11.2149H4.86972V11.2616H5.00987V11.3084H5.1501V11.3551H5.33703V11.4019H5.47719V11.4486H5.61734V11.4953H5.75758V11.542H5.89773V11.5888H6.08466V11.6355H6.22489V11.6823H6.41174V11.6355H6.5052V11.5888H6.55197V11.542H6.64543V11.4953H6.69213V11.4486H6.78559V11.4019H6.87905V11.3551H6.92582V11.3084H7.01921V11.2616H7.06598V11.2149H7.15944V11.1682H7.25291V11.1215H7.2996V11.0747H7.39306V11.028H7.43983V10.9813H7.53329V10.9346H7.62676V10.8879H7.67345V10.8411H7.76691V10.7944H7.81361V10.7476H7.90707V10.7009H8.00053V10.6542H8.0473V10.6075H8.14077V10.5607H8.18746V10.514H8.28092V10.4672H8.37438V10.4205H8.42108V10.3738H8.51454V10.3271H8.56131V10.2804H8.65477V10.2336H8.74824V10.1869H8.79493V10.1402H8.88839V10.0935H8.93516V10.0467H9.02862V10H9.12201V9.95323H9.16878V9.90654H9.26224V9.85977H9.30894V9.81307H9.4024V9.76631H9.49586V9.71961H9.54263V9.67284H9.6361V9.62615H9.68279V9.57945H9.77625V9.53269H9.86972V9.48599H9.91641V9.43922H10.0099V9.39253H10.0566V9.34576H10.1501V9.29907H10.2436V9.2523H10.2903V9.2056H10.3837V9.15884H10.4304V9.11214H10.5239V9.06537H10.6173V9.01868H10.6641V8.97191H10.7576V8.92521H10.8043V8.87852H10.8977V8.83175H10.9912V8.78506H11.038V8.73829H11.1314V8.6916H11.1781V8.64483H11.2716V8.59813H11.365V8.55136H11.4117V8.50467H11.5052V8.4579H11.552V8.41121H11.6454V8.36444H11.7389V8.31774H11.7856V8.27098H11.8791V8.22428H11.9257V8.17759H12.0192V8.13082H12.1127V8.08412H12.1594V8.03736H12.2529V7.99066H12.2996V7.94389H12.3931V7.8972H12.4865V7.85043H12.5332V7.80374H12.6267V7.75697H12.6735V7.71027H12.7669V7.66351H12.8604V7.61681H12.9071V7.57004H13.0005V7.52335H13.0473V7.47665H13.1408V7.42988H13.2342V7.38319H13.2809V7.33642H13.3744V7.28973H13.4211V7.24296H13.5145V7.19626H13.608V7.1495H13.6548V7.1028H13.7482V7.05603H13.7949V7.00934H13.8884V6.96257H13.9351V6.91588H14.0286V6.86918H14.122V6.82241H14.1688V6.77572H14.2622V6.72895H14.3089V6.68226H14.4024V6.63549H14.4959V6.58879H14.5426V6.54203H14.636V6.49533H14.6828V6.44856H14.7763V6.40187H14.8697V6.3551H14.9164V6.3084H15.0099V6.26164H15.0566V6.21494H15.1501V6.16825H15.2436V6.12148H15.2903V6.07478H15.3837V6.02802H15.4304V5.98132H15.5239V5.93455H15.6173V5.88786H15.6641V5.84109H15.7576V5.7944H15.8043V5.74763H15.8977V5.70093H15.9912V5.65417H16.0379V5.60747H16.1314V5.5607H16.1781V5.51401H16.2716V5.46731H16.365V5.42055H16.4117V5.37385H16.5052V5.32708H16.552V5.28039H16.6454V5.23362H16.7388V5.18693H16.7856V5.14016H16.8791V5.09346H16.9258V5.04669H17.0192V5H17.1127V4.95323H17.1594V4.90654H17.2529V4.85977H17.2996V4.81307H17.3931V4.76638H17.4865V4.71961H17.5332V4.67292H17.6267V4.62615H17.6735V4.57945H17.7669V4.53269H17.8604V4.48599H17.9071V4.43922H18.0005V4.39253H18.0473V4.34576H18.1407V4.29907H18.2342V4.2523H18.2809V4.2056H18.3744V4.15883H18.4211V4.11214H18.5145V4.06545H18.608V4.01868H18.6548V3.97198H18.7482V3.92522H18.7949V3.87852H18.8884V3.83175H18.9819V3.78506H19.0286V3.73829H19.122V3.69159H19.2155V3.64483H19.4024V3.59813H19.636V3.64483H19.7295V3.69159H19.7763V3.87852H19.7295V3.92522H19.6828V3.97198H19.636V4.01868H19.5893V4.06545H19.5426V4.11214H19.4959V4.15883H19.4492V4.2056H19.4024V4.2523H19.3557V4.29907H19.2622V4.34576H19.2155V4.39253H19.1688V4.43922H19.122V4.48599H19.0753V4.53269H19.0286V4.57945H18.9819V4.62615H18.9351V4.67292H18.8416V4.71961H18.7949V4.76638H18.7482V4.81307H18.7015V4.85977H18.6548V4.90654H18.608V4.95323H18.5613V5H18.5145V5.04669H18.4678V5.09346H18.3744V5.14016H18.3276V5.18693H18.2809V5.23362H18.2342V5.28039H18.1875V5.32708H18.1407V5.37385H18.094V5.42055H18.0473V5.46731H18.0005V5.51401H17.9071V5.5607H17.8604V5.60747H17.8136V5.65417H17.7669V5.70093H17.7201V5.74763H17.6735V5.7944H17.6267V5.84109H17.58V5.88786H17.5332V5.93455H17.4398V5.98132H17.3931V6.02802H17.3464V6.07478H17.2996V6.12148H17.2529V6.16825H17.2061V6.21494H17.1594V6.26164H17.1127V6.3084H17.066V6.3551H16.9725V6.40187H16.9258V6.44856H16.8791V6.49533H16.8323V6.54203H16.7856V6.58879H16.7388V6.63549H16.6921V6.68226H16.6454V6.72895H16.552V6.77572H16.5052V6.82241H16.4585V6.86918H16.4117V6.91588H16.365V6.96257H16.3183V7.00934H16.2716V7.05603H16.2248V7.1028H16.1781V7.1495H16.0847V7.19626H16.0379V7.24296H15.9912V7.28973H15.9445V7.33642H15.8977V7.38319H15.851V7.42988H15.8043V7.47665H15.7576V7.52335H15.7108V7.57004H15.6173V7.61681H15.5707V7.66351H15.5239V7.71027H15.4772V7.75697H15.4304V7.80374H15.3837V7.85043H15.337V7.8972H15.2903V7.94389H15.2436V7.99066H15.1501V8.03736H15.1033V8.08412H15.0566V8.13082H15.0099V8.17759H14.9632V8.22428H14.9164V8.27098H14.8697V8.31774H14.8229V8.36444H14.7295V8.41121H14.6828V8.4579H14.636V8.50467H14.5893V8.55136H14.5426V8.59813H14.4959V8.64483H14.4492V8.6916H14.4024V8.73829H14.3557V8.78506H14.2622V8.83175H14.2155V8.87852H14.1688V8.92521H14.122V8.97191H14.0753V9.01868H14.0286V9.06537H13.9819V9.11214H13.9351V9.15884H13.8884V9.2056H13.7949V9.2523H13.7482V9.29907H13.7015V9.34576H13.6548V9.39253H13.608V9.43922H13.5613V9.48599H13.5145V9.53269H13.4678V9.57945H13.4211V9.62615H13.3276V9.67284H13.2809V9.71961H13.2342V9.76631H13.1875V9.81307H13.1408V9.85977H13.094V9.90654H13.0473V9.95323H13.0005V10H12.9538V10.0467H12.8604V10.0935H12.8136V10.1402H12.7669V10.1869H12.7201V10.2336H12.6735V10.2804H12.6267V10.3271H12.58V10.3738H12.5332V10.4205H12.4865V10.4672H12.3931V10.514H12.3464V10.5607H12.2996V10.6075H12.2529V10.6542H12.2061V10.7009H12.1594V10.7476H12.1127V10.7944H12.066V10.8411H11.9725V10.8879H11.9257V10.9346H11.8791V10.9813H11.8323V11.028H11.7856V11.0747H11.7389V11.1215H11.6921V11.1682H11.6454V11.2149H11.5987V11.2616H11.5052V11.3084H11.4585V11.3551H11.4117V11.4019H11.365V11.4486H11.3183V11.4953H11.2716V11.542H11.2248V11.5888H11.1781V11.6355H11.1314V11.6823H11.038V11.729H10.9912V11.7756H10.9445V11.8224H10.8977V11.8691H10.851V11.9159H10.8043V11.9626H10.7576V12.0093H10.7108V12.056H10.6641V12.1028H10.5707V12.1495H10.5239V12.1963H10.4772V12.243H10.4304V12.2897H10.3837V12.3364H10.337V12.3832H10.2903V12.4299H10.2436V12.4766H10.1501V12.5233H10.1033V12.57H10.0566V12.6168H10.0099V12.6635H9.96318V12.7103H9.91641V12.757H9.86972V12.8037H9.82295V12.8504H9.77625V12.8972H9.68279V12.9439H9.6361V12.9907H9.58933V13.0374H9.54263V13.0841H9.49586V13.1308H9.44917V13.2243H9.4024V13.8784H9.35571V14.5327H9.30894V15.1869H9.26224V15.8411H9.21548V16.4953H9.16878V17.1495H9.12201V17.8504H9.07532V18.5047H9.02862V18.7383H9.4024V18.6916H9.54263V18.6448H9.6361V18.5981H9.72948V18.5514H9.82295V18.5047H9.86972V18.4579H9.91641V18.4112H9.96318V18.3644H10.0099V18.3177H10.0566V18.271H10.1033V18.2243H10.1968V18.1775H10.2436V18.1308H10.2903V18.0841H10.337V18.0374H10.3837V17.9907H10.4304V17.9439H10.4772V17.8972H10.5239V17.8504H10.5707V17.8037H10.6173V17.757H10.6641V17.7103H10.7108V17.6635H10.7576V17.6168H10.8043V17.57H10.851V17.5233H10.8977V17.4766H10.9445V17.4299H10.9912V17.3831H11.038V17.3364H11.0847V17.2897H11.1314V17.243H11.1781V17.1963H11.2716V17.1495H11.3183V17.1028H11.365V17.056H11.4117V17.0093H11.4585V16.9626H11.5052V16.9159H11.552V16.8691H11.5987V16.8224H11.6454V16.7756H11.6921V16.729H11.7389V16.6822H11.7856V16.6355H11.8323V16.5888H11.8791V16.542H11.9257V16.4953H11.9725V16.4486H12.0192V16.4019H12.066V16.3551H12.1127V16.3084H12.1594V16.2616H12.2061V16.2149H12.2996V16.1682H12.3464V16.1215H12.3931V16.0747H12.4398V16.028H12.4865V15.9812H12.5332V15.9346H12.58V15.8879H12.6267V15.8411H12.6735V15.7944H12.7201V15.7476H12.7669V15.7009H12.8604V15.7476H12.9538V15.7944H13.0005V15.8411H13.0473V15.8879H13.1408V15.9346H13.1875V15.9812H13.2342V16.028H13.3276V16.0747H13.3744V16.1215H13.4211V16.1682H13.5145V16.2149H13.5613V16.2616H13.6548V16.3084H13.7015V16.3551H13.7482V16.4019H13.8417V16.4486H13.8884V16.4953H13.9351V16.542H14.0286V16.5888H14.0753V16.6355H14.122V16.6822H14.2155V16.729H14.2622V16.7756H14.3557V16.8224H14.4024V16.8691H14.4492V16.9159H14.5426V16.9626H14.5893V17.0093H14.636V17.056H14.7295V17.1028H14.7763V17.1495H14.8229V17.1963H14.9164V17.243H14.9632V17.2897H15.0566V17.3364H15.1033V17.3831H15.1501V17.4299H15.2436V17.4766H15.2903V17.5233H15.337V17.57H15.4304V17.6168H15.4772V17.6635H15.5707V17.7103H15.6173V17.757H15.6641V17.8037H15.7576V17.8504H15.8043V17.8972H15.851V17.9439H15.9445V17.9907H15.9912V18.0374H16.0379V18.0841H16.1314V18.1308H16.1781V18.1775H16.2716V18.2243H16.3183V18.271H16.365V18.3177H16.4585V18.3644H16.5052V18.4112H16.552V18.4579H16.6454V18.5047H16.6921V18.5514H16.7388V18.5981H16.8323V18.6448H16.8791V18.6916H16.9725V18.7383H17.0192V18.785H17.066V18.8318H17.1594V18.8784H17.2061V18.9252H17.2529V18.9719H17.3464V19.0187H17.3931V19.0654H17.4398V19.1121H17.5332V19.1588H17.58V19.2056H17.6735V19.2523H17.7201V19.2991H17.7669V19.3458H17.8604V19.3925H17.9071V19.4392H17.9538V19.4859H18.0473V19.5327H18.094V19.5794H18.1875V19.6261H18.2342V19.6728H18.2809V19.7196H18.3744V19.7663H18.4678V19.8131H18.5613V19.8598H18.7015V19.9065H18.8416V19.9532H19.122V20H19.3089V19.9532H19.4959V19.9065H19.636V19.8598H19.6828V19.8131H19.7763V19.7663H19.8229V19.7196H19.8697V19.6728H19.9164V19.6261H19.9632V19.5794H20.0099V19.4859H20.0566V19.3925H20.1033V19.2991H20.1501V19.2056H20.1968V19.1121H20.2435V18.9719H20.2903V18.785H20.337V18.5514H20.3837V18.3177H20.4304V18.1308H20.4772V17.8972H20.5239V17.6635H20.5707V17.4766H20.6173V17.243H20.6641V17.0093H20.7108V16.8224H20.7576V16.5888H20.8043V16.3551H20.851V16.1682H20.8977V15.9346H20.9444V15.7009H20.9912V15.4672H21.0379V15.2803H21.0847V15.0467H21.1314V14.8131H21.1781V14.6261H21.2248V14.3925H21.2716V14.1588H21.3183V13.9719H21.365V13.7383H21.4117V13.5047H21.4585V13.3177H21.5052V13.0841H21.5519V12.8504H21.5987V12.6635H21.6454V12.4299H21.6921V12.1963H21.7388V12.0093H21.7856V11.7756H21.8323V11.542H21.8791V11.3084H21.9257V11.1215H21.9725V10.8879H22.0192V10.6542H22.066V10.4672H22.1127V10.2336H22.1594V10H22.2061V9.81307H22.2528V9.57945H22.2996V9.34576H22.3463V9.15884H22.3931V8.92521H22.4398V8.6916H22.4865V8.50467H22.5332V8.27098H22.58V8.03736H22.6267V7.80374H22.6735V7.61681H22.7201V7.38319H22.7669V7.1495H22.8136V6.96257H22.8604V6.72895H22.9071V6.49533H22.9538V6.3084H23.0005V6.07478H23.0472V5.84109H23.094V5.65417H23.1407V5.42055H23.1875V5.18693H23.2342V5H23.2809V4.76638H23.3276V4.53269H23.3744V4.34576H23.4211V4.11214H23.4678V3.87852H23.5145V3.64483H23.5613V3.4579H23.608V3.22428H23.6547V2.99066H23.7015V2.80374H23.7482V2.57012H23.7949V2.33642H23.8416V2.1495H23.8884V1.91588H23.9351V1.68226H23.9819V0.887859H23.9351V0.700934H23.8884V0.607471H23.8416V0.514008H23.7949V0.420546H23.7482V0.373851H23.7015V0.327083H23.6547V0.280388H23.608V0.23362H23.5613V0.186926H23.4678V0.140157H23.4211V0.0934628H23.2809V0.0467681H23.0472V0H22.8136V0.0467681Z" fill="#A5A5A5"/>
</svg>
