<svg width="37" height="20" viewBox="0 0 37 20" fill="none" xmlns="http://www.w3.org/2000/svg">
<path fill-rule="evenodd" clip-rule="evenodd" d="M12.6602 1.31266C12.6602 1.42827 12.8082 1.42827 12.9171 1.44296C13.1102 1.46893 13.0639 1.47672 13.2193 1.52776C13.3159 1.55947 13.4239 1.57361 13.5062 1.62788C13.6209 1.70347 13.7309 1.71564 13.8808 1.83385C13.8919 1.84254 13.892 1.84335 13.9032 1.85293L13.9254 1.87227C14.0081 1.94051 14.1236 2.01063 14.1887 2.10663C14.3342 2.32102 14.3672 2.34941 14.4748 2.60848C14.4979 2.66409 14.5205 2.68791 14.5387 2.73806C14.5939 2.89048 14.6164 3.04675 14.6565 3.20078C14.709 3.40201 14.7044 3.68338 14.7439 3.88765C14.7822 4.0861 14.765 4.05619 14.7751 4.24344C14.7787 4.30971 14.7897 4.33872 14.7892 4.4229C14.7888 4.48093 14.7848 4.55884 14.7911 4.61463L14.8172 6.89813L14.7037 8.12553C14.6884 8.27213 14.6734 8.45195 14.6322 8.59309C14.5696 8.80712 14.5922 8.90777 14.4856 9.10998C14.4551 9.16792 14.4419 9.25345 14.4117 9.31255L14.2599 9.56169C14.2274 9.59992 14.1592 9.67219 14.1258 9.70398C14.0399 9.78575 13.8286 9.85578 13.6832 9.85578C13.4853 9.85578 13.3028 9.75789 13.166 9.65401C13.1143 9.6147 13.0695 9.59652 13.0156 9.55569L12.6844 9.27861C12.6631 9.25273 12.6519 9.23375 12.6293 9.2093L11.8562 8.28198C11.8212 8.23148 11.7998 8.17497 11.7583 8.13109C11.7012 8.07091 11.6622 7.98646 11.6063 7.92359C11.5836 7.89798 11.5717 7.8781 11.5541 7.85133C11.5251 7.80727 11.4773 7.74789 11.4556 7.70106C11.4425 7.67294 11.4392 7.65592 11.4182 7.6278L10.6656 6.43138C10.643 6.39386 10.6335 6.38804 10.6148 6.35777L10.4766 6.13649C10.4585 6.10084 10.4607 6.08741 10.4369 6.05177C10.3991 5.99508 10.3687 5.9718 10.3351 5.90473L10.0356 5.34717C10.0126 5.31449 10.0081 5.3152 9.98702 5.27141C9.90955 5.11004 9.88179 5.10207 9.85448 5.04457C9.83648 5.00678 9.84284 4.99451 9.82099 4.95368C9.78714 4.89054 9.75937 4.8849 9.73117 4.80851C9.69767 4.71762 9.71299 4.71108 9.64994 4.64096C9.6049 4.5909 9.59925 4.53896 9.57203 4.4701C9.54794 4.40938 9.51445 4.37141 9.48516 4.30819C9.4549 4.2429 9.45185 4.20475 9.41442 4.14395L9.25116 3.82335C9.22269 3.75189 9.21812 3.70971 9.18113 3.64451C9.14397 3.57905 9.13349 3.56374 9.10367 3.48699C9.06454 3.38633 9.01215 3.33538 8.97991 3.23759C8.94758 3.13944 8.88803 3.09395 8.8531 2.99114C8.79373 2.81624 8.72863 2.63741 8.64633 2.47908C8.60164 2.39302 8.60325 2.33857 8.49973 2.14182C8.46919 2.08379 8.47 2.01896 8.43498 1.95779C8.39522 1.88848 8.37633 1.87111 8.3577 1.7863C8.33818 1.698 8.31489 1.69245 8.27021 1.62502C8.20286 1.52338 8.22919 1.52767 8.13176 1.404C7.79379 0.975225 7.56803 1.01884 7.28101 0.900091C7.21537 0.872957 7.16639 0.856748 7.07549 0.856748H2.15423C2.06414 0.856748 1.91692 0.858807 1.84277 0.877076L1.3702 0.998957L1.23059 1.09433C1.05739 1.19615 0.965332 1.40436 0.965332 1.60326L1.01306 1.83197C1.02408 1.86538 1.03868 1.90469 1.04844 1.93478C1.08274 2.04 1.09482 2.15123 1.14918 2.24875C1.18877 2.31985 1.20847 2.37896 1.23981 2.44845L1.49969 3.0318C1.55047 3.11786 1.55817 3.12627 1.5922 3.22962C1.61629 3.30296 1.65578 3.34272 1.68605 3.41221C1.719 3.4878 1.72089 3.53087 1.76978 3.60493C1.79781 3.64747 1.79871 3.64129 1.81751 3.69547C1.87814 3.86947 1.92901 3.92042 1.95229 3.9892C1.98739 4.09299 2.0413 4.17341 2.07757 4.27872C2.10202 4.34965 2.15092 4.40275 2.1793 4.46732C2.19515 4.50341 2.20035 4.52875 2.21701 4.5678C2.25238 4.65063 2.28954 4.6689 2.31847 4.75666C2.34981 4.85177 2.36486 4.86538 2.40757 4.94401C2.44393 5.0109 2.44868 5.06678 2.49148 5.13663L2.58238 5.32219C2.61032 5.38765 2.66745 5.42419 2.69316 5.50165C2.70775 5.54562 2.70784 5.55968 2.7296 5.60347C2.75029 5.64529 2.76122 5.65335 2.78101 5.69034C2.81969 5.7627 2.81611 5.8347 2.86922 5.89237C2.9422 5.97162 2.94202 6.07917 3.00919 6.16711C3.04984 6.22031 3.07062 6.29947 3.10823 6.35831C3.13331 6.39762 3.14002 6.39028 3.16608 6.43873C3.19653 6.49532 3.21534 6.56983 3.25599 6.62535C3.30981 6.69888 3.30507 6.74258 3.34223 6.81556C3.38002 6.88971 3.40769 6.91013 3.4454 7.00264L3.74074 7.55052C3.81104 7.65395 3.94411 7.95386 3.98459 8.01171C4.07978 8.14774 4.15653 8.3161 4.24071 8.46055L4.3351 8.64261C4.40441 8.7447 4.41471 8.82288 4.4902 8.91601L4.50229 8.93151C4.51205 8.94485 4.51125 8.94413 4.51886 8.9564C4.57367 9.04488 4.53847 9.01577 4.65005 9.18467C4.71149 9.27763 4.78984 9.46246 4.84125 9.54637C4.8614 9.57924 4.87761 9.59634 4.89561 9.63019C4.91611 9.6687 4.91719 9.69064 4.93644 9.72763L4.99949 9.80285C5.0354 9.84163 5.03585 9.84082 5.06155 9.89285L5.31641 10.343C5.33907 10.379 5.3568 10.3927 5.37623 10.4214C5.41313 10.4759 5.43883 10.5543 5.48226 10.6057L5.85597 11.1996C5.87979 11.2361 5.88767 11.2585 5.90934 11.2983C5.9457 11.3648 5.98385 11.3954 6.01994 11.4641C6.07582 11.5706 6.16465 11.7189 6.24158 11.8093C6.26423 11.836 6.27865 11.8618 6.29809 11.891L6.47262 12.145C6.49367 12.175 6.50907 12.1972 6.52662 12.2293C6.54552 12.2638 6.55349 12.2896 6.57525 12.3189C6.5988 12.3506 6.61116 12.3574 6.63552 12.3968C6.71925 12.5319 6.8765 12.7921 6.97492 12.9007L8.44036 14.8221C8.46973 14.8534 8.476 14.8698 8.49866 14.902L8.82015 15.2855C9.01913 15.5093 9.21454 15.7373 9.42857 15.9488L9.7669 16.3017C9.80102 16.3344 9.81669 16.3393 9.85027 16.3704L10.4423 16.9118C10.4847 16.9481 10.4666 16.9479 10.5087 16.9836L11.0752 17.4264C11.1019 17.4487 11.0805 17.4307 11.0963 17.4467C11.1945 17.5458 11.3301 17.609 11.437 17.7004C11.4422 17.7049 11.459 17.7195 11.4592 17.7197L12.1373 18.1614C12.1726 18.1835 12.1872 18.1993 12.2171 18.2198C12.3242 18.2933 12.4785 18.3376 12.587 18.4167L12.769 18.5251C12.829 18.5529 12.8853 18.5907 12.9505 18.62C12.9954 18.6402 12.9984 18.639 13.0414 18.6673C13.1211 18.7198 13.3216 18.8059 13.4222 18.8532C13.4554 18.8688 13.4881 18.8826 13.5189 18.8947C13.5898 18.9228 13.639 18.958 13.7065 18.9836C13.783 19.0127 13.8438 19.0304 13.9097 19.0707C13.9906 19.1202 14.0845 19.134 14.1985 19.1966C14.2432 19.2212 14.2562 19.2228 14.3093 19.2379C14.3869 19.26 14.4555 19.2685 14.5214 19.3022L14.7371 19.3768C14.8792 19.4069 14.8375 19.4486 15.1605 19.5065C15.2336 19.5196 15.2908 19.5542 15.3637 19.5796C15.4467 19.6087 15.5109 19.6122 15.5991 19.6346C15.7945 19.6842 15.8437 19.7173 16.0546 19.7459L16.5365 19.8308C16.6263 19.8466 16.6779 19.8728 16.7568 19.887L17.0203 19.9139C17.179 19.9371 17.3591 19.9761 17.5254 19.9755C17.7645 19.9745 19.3388 20.0147 19.5541 19.9851C19.8444 19.9454 20.0275 19.9925 20.3179 19.9748C20.431 19.9679 20.5326 19.9297 20.6213 19.8773C20.7604 19.7952 20.9589 19.7718 21.0749 19.6536C21.1653 19.5616 21.2594 19.493 21.3174 19.3569C21.3475 19.2861 21.3484 19.2172 21.3854 19.1484C21.4503 19.0276 21.4665 18.8354 21.4658 18.6898C21.465 18.5064 21.4786 18.3569 21.4788 18.1636C21.4789 18.1066 21.4846 18.0849 21.4893 18.0497C21.4955 18.0036 21.4905 17.9629 21.495 17.9173L21.5955 17.2021C21.6106 17.0979 21.6672 16.9427 21.7058 16.7733C21.7572 16.548 21.7759 16.6038 21.8131 16.4798C21.8746 16.2753 21.8329 16.3829 21.9329 16.1987C21.9693 16.1318 21.9725 16.0717 22.0154 16.0046C22.0343 15.9751 22.0462 15.9615 22.0642 15.9289C22.0835 15.8941 22.0951 15.8688 22.1147 15.8412C22.1733 15.7587 22.3975 15.5642 22.4686 15.5176C22.4868 15.5056 22.4909 15.5018 22.5077 15.4876C22.5098 15.4858 22.5129 15.4831 22.515 15.4812C22.6383 15.3758 22.8449 15.3164 23.0138 15.3164C23.2222 15.3164 23.5611 15.4582 23.7072 15.5767L23.9343 15.7368C23.9594 15.7558 23.9619 15.7617 23.9872 15.7806C24.1742 15.9206 24.2695 16.0495 24.3941 16.1477C24.5227 16.2491 24.7415 16.5241 24.857 16.6387L25.7195 17.6147C25.7821 17.6769 25.8575 17.7431 25.9127 17.8087L26.5715 18.5321C26.5852 18.5479 26.5823 18.5462 26.5975 18.5614L26.7659 18.7248C26.8631 18.807 26.946 18.9055 27.0527 18.977L27.2655 19.1513C27.3758 19.2369 27.605 19.4029 27.723 19.468C27.7718 19.495 27.8118 19.5034 27.8524 19.532C27.904 19.5683 27.8945 19.5799 27.9681 19.6098C28.2098 19.7079 28.1005 19.6886 28.3776 19.7672C28.4339 19.7831 28.4599 19.8018 28.5074 19.8308C28.6187 19.8987 28.6918 19.8763 28.8058 19.9195C28.9616 19.9785 28.9784 19.9584 29.1317 19.9807C29.3967 20.0191 29.9354 19.987 30.2574 19.9889C30.3376 19.9893 30.3801 19.9747 30.4369 19.9747C30.493 19.9747 30.537 19.9887 30.6167 19.9887H34.1555C34.2128 19.9887 34.2791 19.9918 34.3353 19.9888C34.4002 19.9853 34.4199 19.9742 34.5012 19.9749C34.7247 19.9767 34.8792 19.8956 35.0896 19.8445L35.2162 19.7914C35.2577 19.7716 35.3019 19.7608 35.3528 19.7484C35.4719 19.7193 35.4979 19.6756 35.5933 19.6294C35.6718 19.5913 35.7315 19.5333 35.7901 19.4669C35.8107 19.4435 35.8092 19.4411 35.8262 19.4201C35.9204 19.303 35.9399 19.2747 36.0011 19.1388C36.0831 18.9567 36.0494 18.7584 36.0494 18.565C36.0494 18.5588 35.9999 18.4556 35.9901 18.4308C35.953 18.3379 35.9397 18.2197 35.8865 18.1334L35.1015 16.9001C35.065 16.8473 35.0627 16.8254 35.0162 16.7781C34.9497 16.7106 34.8866 16.6282 34.8288 16.5507C34.799 16.5107 34.7772 16.479 34.7456 16.4405L34.5852 16.2553C34.5838 16.2539 34.5629 16.2288 34.5601 16.2251C34.5265 16.1812 34.4922 16.151 34.4655 16.1123C34.4353 16.0682 34.4212 16.0385 34.3865 15.9978L34.2896 15.8872C34.2245 15.8086 34.1404 15.7669 34.0785 15.6837L33.6993 15.261C33.6571 15.2051 33.6487 15.2112 33.5991 15.1677L33.4226 14.9847C33.4063 14.9693 33.4106 14.9746 33.3928 14.9592L33.2416 14.8062C33.2396 14.8041 33.237 14.8009 33.2352 14.7989L33.1948 14.7563C33.1228 14.6891 33.0693 14.6137 32.9971 14.5532L32.6867 14.2552C32.617 14.1904 32.5353 14.1311 32.4747 14.0526C32.3438 13.8829 32.055 13.6898 31.8541 13.4705L31.6357 13.2742C31.5099 13.1532 31.1548 12.8343 31.029 12.6781C30.9308 12.556 30.8111 12.4443 30.7448 12.3541C30.706 12.3014 30.6842 12.2882 30.6478 12.2437C30.6098 12.1972 30.5109 12.0395 30.4949 11.9819C30.4625 11.8655 30.3884 11.8331 30.3616 11.7143C30.2824 11.3625 30.2744 11.3538 30.3678 10.9622C30.3755 10.9298 30.3764 10.9054 30.385 10.8688C30.4013 10.7996 30.4621 10.6932 30.4899 10.6143C30.5174 10.5363 30.5406 10.5246 30.5764 10.4658C30.6181 10.3975 30.6776 10.2627 30.743 10.1624L31.0415 9.74213C31.0699 9.70981 31.0658 9.72225 31.091 9.68106L31.2354 9.46604C31.2756 9.40488 31.3076 9.39019 31.3431 9.33879C31.3793 9.28649 31.3959 9.24458 31.4336 9.19434L31.748 8.78983C31.833 8.68219 31.9294 8.57571 31.9991 8.46037C32.0076 8.44622 32.0074 8.44425 32.0211 8.42715L32.1504 8.25234C32.215 8.1627 32.3051 8.08953 32.3579 7.98986C32.3968 7.91652 32.4263 7.91168 32.4688 7.85186C32.531 7.7641 32.5952 7.66246 32.6663 7.57944C32.6915 7.55016 32.6966 7.5507 32.7168 7.51927L32.8714 7.31455C33.0089 7.13231 33.1361 6.94541 33.2809 6.77034L33.8748 5.95416C33.9324 5.89613 33.9337 5.88753 33.976 5.82037L34.1725 5.53299C34.2049 5.49753 34.1938 5.51159 34.2198 5.46968C34.2952 5.34834 34.3951 5.24455 34.4635 5.11899C34.4947 5.06168 34.5201 5.02729 34.5532 4.97374L35.103 4.09971C35.1248 4.0681 35.1331 4.06317 35.1498 4.03595C35.1663 4.00908 35.1759 3.98087 35.1922 3.95401C35.2215 3.9061 35.2636 3.86974 35.2887 3.81547C35.319 3.74983 35.3266 3.72251 35.3656 3.65741L35.7578 2.86075C35.7883 2.80281 35.7939 2.75221 35.8194 2.68738C35.8699 2.55878 35.9174 2.49878 35.9422 2.34018C35.9578 2.24042 36.0489 2.03597 36.0489 1.96299C36.0489 1.35045 36.0767 1.64006 35.9618 1.37275C35.9222 1.28069 35.9397 1.28391 35.8614 1.22436C35.7476 1.13794 35.7734 1.13561 35.6366 1.07588C35.5327 1.03057 35.5112 0.987942 35.3739 0.965375L34.9619 0.879673C34.8964 0.863643 34.7981 0.857016 34.7219 0.857016H28.681C28.5081 0.857016 28.4554 0.928927 28.3161 0.962151C28.2325 0.982031 28.2107 0.98633 28.1634 1.04445C28.0307 1.20752 28.052 1.11761 27.9041 1.36576C27.8848 1.39827 27.8703 1.40758 27.8492 1.43526L27.7051 1.77493C27.6791 1.83932 27.6732 1.89421 27.6448 1.94956C27.6143 2.00848 27.5867 2.02845 27.5672 2.10699C27.5485 2.18257 27.5378 2.2243 27.5055 2.28027C27.449 2.37815 27.4195 2.51275 27.363 2.62156C27.309 2.72526 27.2814 2.84418 27.2214 2.94994C27.1885 3.0078 27.1821 3.06878 27.1549 3.13236C27.1277 3.19586 27.1015 3.20696 27.0713 3.28371C27.0209 3.41203 26.9706 3.48081 26.9306 3.61308C26.9074 3.68965 26.8864 3.70872 26.8482 3.76568C26.8111 3.82084 26.8144 3.86992 26.7783 3.93072C26.7333 4.00657 26.7255 3.97523 26.6919 4.07938L26.3947 4.73589C26.2967 4.89717 26.1337 5.1841 26.0627 5.35774C26.0281 5.44219 25.9769 5.50219 25.9351 5.58959C25.914 5.63383 25.9098 5.63249 25.8866 5.66553C25.8504 5.71702 25.8379 5.76681 25.8082 5.82207C25.7781 5.87813 25.7361 5.8972 25.7042 5.95299L25.2695 6.69332C25.2306 6.751 25.2108 6.78404 25.1746 6.84726L24.791 7.41753C24.745 7.47816 24.735 7.48434 24.6955 7.55697C24.6639 7.61482 24.6331 7.6321 24.5986 7.69506C24.5166 7.84443 24.4448 7.91061 24.3501 8.041C24.2504 8.1781 24.1563 8.32595 24.0461 8.45589C23.9692 8.54661 23.7295 8.8527 23.6629 8.90213C23.6459 8.91476 23.417 9.18485 23.3134 9.27145C23.2351 9.33691 23.1299 9.4424 23.0522 9.49407C22.9941 9.53267 22.9742 9.56795 22.9213 9.59822C22.6718 9.74106 22.5012 9.85318 22.2034 9.76766C22.0938 9.73613 21.9795 9.61076 21.8853 9.53285C21.8386 9.49425 21.8453 9.47536 21.8155 9.42288C21.7858 9.3704 21.759 9.36736 21.7331 9.32563C21.6972 9.26778 21.694 9.19022 21.6526 9.12969C21.5994 9.05204 21.6061 9.01837 21.5811 8.9247C21.542 8.77846 21.4998 8.81509 21.4673 8.48562C21.4152 7.95897 21.4099 7.82509 21.4099 7.28509C21.4099 6.74141 21.4513 6.20616 21.4513 5.66768C21.4513 5.48338 21.4513 5.29908 21.4513 5.11469C21.4513 4.57084 21.4957 4.04069 21.4926 3.49711C21.4916 3.32015 21.5205 3.16424 21.5205 2.97197V2.08729L21.4661 1.50582C21.4512 1.3989 21.4383 1.34096 21.4 1.254C21.3645 1.17314 21.3527 1.0869 21.321 1.0012C21.2964 0.93439 21.234 0.86821 21.1945 0.809733C21.171 0.774897 21.1545 0.756359 21.1294 0.722777C20.9586 0.493792 20.9621 0.554508 20.7694 0.433075C20.6469 0.355881 20.5499 0.350777 20.4261 0.292568C20.2837 0.225582 20.0532 0.237403 19.9031 0.179642C19.6828 0.0947464 19.2867 0.0758509 19.0464 0.0548956C18.8606 0.0386866 18.6268 0 18.4516 0H16.2122C15.8445 0 15.4957 0.0619702 15.2165 0.0687762L14.7962 0.104597C14.7508 0.111045 14.6888 0.114627 14.6598 0.120269L14.4151 0.179732C14.2978 0.219314 14.1492 0.215015 14.0306 0.251374C13.9964 0.261851 13.9612 0.278239 13.9243 0.297135C13.8522 0.333941 13.7703 0.345314 13.6922 0.369135C13.6065 0.395195 13.5658 0.433344 13.4802 0.461284C13.3862 0.491822 13.3296 0.556747 13.2473 0.601613L12.9634 0.815374C12.9592 0.820479 12.9513 0.830419 12.9448 0.83821C12.9175 0.87036 12.8994 0.886927 12.8703 0.915852C12.768 1.0174 12.6595 1.15863 12.6595 1.31329L12.6602 1.31266Z" fill="#A5A5A5"/>
</svg>
