<svg width="29" height="20" viewBox="0 0 29 20" fill="none" xmlns="http://www.w3.org/2000/svg">
<path fill-rule="evenodd" clip-rule="evenodd" d="M15.8729 8.09783C15.9158 8.13022 15.9393 8.11987 15.9762 8.15149C16.111 8.26708 16.179 8.24424 16.2134 8.27592L16.2266 8.29455C16.2626 8.33795 16.2639 8.31008 16.3126 8.34465C16.3285 8.35592 16.3409 8.37014 16.3561 8.37897L16.5223 8.48243C16.5589 8.50837 16.6026 8.50999 16.6467 8.54035L16.8705 8.66655C16.9315 8.69945 16.9363 8.67401 17.1031 8.78382L17.2719 8.87539C17.3919 8.91179 17.4253 8.95509 17.5481 9.02835C17.5814 9.0482 17.643 9.09312 17.6733 9.09368C17.7751 9.08256 17.7924 9.11485 17.8681 9.14658L17.8988 9.16176C17.9009 9.16297 17.9033 9.16516 17.9053 9.16643C17.9482 9.19338 17.9404 9.18516 17.9981 9.19232C17.9999 9.19557 18.0037 9.20272 18.0048 9.2045L18.0437 9.26445C18.0627 9.29349 18.0524 9.29583 18.1359 9.3106C18.2449 9.32999 18.1921 9.31222 18.2319 9.35872C18.2334 9.36055 18.2355 9.36324 18.2372 9.36502L18.263 9.38492C18.3085 9.41269 18.3513 9.41421 18.3982 9.44167C18.4497 9.47188 18.534 9.49685 18.5783 9.53193C18.5994 9.54863 18.6272 9.57503 18.6688 9.58072C18.6863 9.62285 18.6353 9.56731 18.6721 9.59249L18.7076 9.61595C18.7301 9.64295 18.6941 9.62184 18.7349 9.6558L18.8714 9.71189C18.9212 9.7324 18.9311 9.72067 18.9672 9.75327C19.0175 9.7985 18.9936 9.77073 19.061 9.78728C19.094 9.79535 19.0676 9.79794 19.1077 9.80129L19.141 9.79327C19.1422 9.79306 19.1853 9.79662 19.2007 9.83185C19.215 9.86474 19.2213 10.005 19.2035 10.0338L19.1706 10.1137L19.0304 10.2194C18.958 10.2597 18.9595 10.2436 18.8982 10.2585C18.8389 10.273 18.8982 10.2544 18.8567 10.2843C18.8259 10.3064 18.8058 10.3026 18.7649 10.3156C18.7147 10.3317 18.7133 10.3387 18.7102 10.3969L18.5519 10.4429C18.5338 10.4536 18.532 10.4721 18.5009 10.4921C18.4676 10.5136 18.4534 10.507 18.4105 10.5168C18.3639 10.5275 18.3713 10.542 18.3319 10.5614C18.2986 10.5778 18.274 10.5813 18.2446 10.609L18.2157 10.636C18.1658 10.6679 18.1291 10.6532 18.0718 10.7079C18.0289 10.749 17.9946 10.7448 17.9527 10.7802C17.9097 10.8166 17.9384 10.8351 17.8719 10.8554L17.8267 10.8809C17.8256 10.8821 17.8234 10.8847 17.8223 10.8859L17.7691 10.9202C17.7393 10.9308 17.7107 10.9286 17.6854 10.9495L17.6686 10.9815C17.6316 10.9822 17.6443 10.9789 17.6143 10.9893L17.5841 11.0057C17.5474 11.0242 17.5062 11.0127 17.4687 11.0289C17.4479 11.0379 17.4241 11.0713 17.4142 11.0886C17.3998 11.1137 17.3989 11.1209 17.3733 11.1336C17.371 11.1348 17.3677 11.1357 17.3653 11.1368C17.3622 11.1383 17.3524 11.1423 17.3492 11.144L17.1586 11.2459C17.1194 11.2582 17.1482 11.2446 17.1177 11.2638C17.063 11.2982 17.0839 11.2854 17.0159 11.3078C16.9701 11.323 16.9644 11.34 16.9297 11.3692C16.9033 11.3914 16.873 11.3916 16.8432 11.4061L16.7421 11.4749C16.6679 11.5192 16.6526 11.477 16.5588 11.5397L16.3436 11.6874C16.306 11.7538 16.3051 11.7453 16.231 11.7528L16.1735 11.773C16.1689 11.7757 16.131 11.7997 16.1308 11.8C16.11 11.8143 16.0877 11.8321 16.0681 11.8499C16.0664 11.8515 16.064 11.8539 16.0623 11.8554C16.0605 11.857 16.0582 11.8594 16.0564 11.861L15.9234 11.9371C15.8815 11.9481 15.8586 11.9342 15.8133 11.9566C15.7677 11.9791 15.7382 12.0156 15.6971 12.0435C15.695 12.0448 15.6923 12.0468 15.6903 12.0481L15.6438 12.0811C15.6255 12.0918 15.6342 12.0898 15.6061 12.0996C15.5588 12.1161 15.5349 12.1146 15.5023 12.1426L15.4483 12.1791C15.4053 12.2032 15.409 12.201 15.3594 12.2163C15.3168 12.2295 15.3214 12.2371 15.2943 12.2606C15.2535 12.2959 15.2563 12.2761 15.2552 12.3456C15.2042 12.3487 15.1702 12.3678 15.1251 12.3834L15.0496 12.4115C14.9832 12.4546 15.0888 12.3958 15.0305 12.4251C15.0223 12.4292 15.0125 12.4318 15.0054 12.4339C14.9194 12.4589 14.9241 12.4964 14.8711 12.513C14.6491 12.5827 14.7786 12.551 14.6836 12.6095C14.6528 12.6285 14.6046 12.6312 14.5769 12.642C14.5399 12.6565 14.5408 12.6907 14.55 12.7126C14.5123 12.7173 14.5172 12.7178 14.493 12.734C14.4914 12.7583 14.4723 12.7306 14.5013 12.7504C14.5147 12.7595 14.5128 12.756 14.5254 12.7552C14.524 12.7582 14.523 12.7598 14.5224 12.7646C14.5119 12.8495 14.4137 12.8102 14.3712 12.7933C14.3854 12.8643 14.3759 12.82 14.3678 12.8898C14.3278 12.8718 14.3631 12.8818 14.3387 12.8915L14.316 12.8378C14.29 12.8509 14.2693 12.8593 14.2385 12.8745C14.1951 12.8958 14.1617 12.8757 14.1188 12.9022C14.0781 12.9274 14.0508 12.9571 14.0095 12.973L13.814 13.0649C13.6874 13.114 13.763 13.1274 13.6773 13.1129C13.6277 13.1159 13.5963 13.1514 13.5716 13.167C13.5654 13.201 13.5933 13.1953 13.5622 13.1957L13.4554 13.2766C13.4169 13.34 13.3409 13.3215 13.2498 13.3982C13.217 13.4259 13.1923 13.422 13.1564 13.4414C13.0938 13.4752 13.0733 13.5018 12.9794 13.5445L12.8899 13.6011C12.8431 13.6269 12.7974 13.6393 12.7561 13.6718C12.7374 13.6864 12.7316 13.6877 12.7098 13.6934C12.6167 13.718 12.6549 13.7268 12.5858 13.7719L12.4625 13.8303C12.4599 13.8312 12.457 13.8324 12.4544 13.8334L12.1758 14.0058C12.1696 14.045 12.181 14.0683 12.0832 14.066C11.92 14.0621 11.9075 14.1652 11.8127 14.2271C11.7415 14.2735 11.7135 14.2481 11.7081 14.3473C11.6281 14.3526 11.6464 14.3572 11.5936 14.3265C11.5586 14.3061 11.5438 14.3175 11.5052 14.3012C11.4997 14.2989 11.4949 14.2957 11.4901 14.2928C11.4871 14.291 11.4794 14.2852 11.4769 14.2832C11.4382 14.2534 11.4436 14.241 11.4438 14.176C11.4515 11.5187 11.442 8.86118 11.442 6.20381C11.442 6.13721 11.4236 5.75175 11.4624 5.70149L11.4917 5.67642C11.5109 5.66378 11.613 5.63119 11.6852 5.6756C11.7302 5.70332 11.7591 5.75779 11.7959 5.78866C11.8377 5.82379 11.8564 5.8049 11.9133 5.80917C11.8691 5.86633 11.9754 5.88323 12.0315 5.88506C12.0636 5.93836 12.0173 5.90821 12.0745 5.92679C12.1331 5.94588 12.1311 5.93202 12.182 5.97806L12.2455 6.0175C12.3029 6.05075 12.3558 6.09533 12.4229 6.12147C12.489 6.14726 12.4369 6.12467 12.4861 6.15843C12.552 6.15736 12.5088 6.15188 12.5295 6.14832C12.5368 6.14705 12.5257 6.14436 12.5471 6.14711C12.5803 6.15137 12.5857 6.19609 12.6098 6.21137C12.6573 6.24153 12.6369 6.25148 12.7186 6.27904C12.7696 6.2963 12.7993 6.35575 12.875 6.38062C12.9218 6.39595 12.8923 6.38372 12.9195 6.40321C12.9403 6.41809 12.9143 6.40682 12.9551 6.4253L13.2267 6.54967C13.2939 6.57921 13.2245 6.60013 13.3368 6.63074C13.3977 6.64739 13.4322 6.67607 13.4889 6.70257L13.5924 6.76811C13.6218 6.7845 13.644 6.7977 13.6746 6.80963C13.75 6.83903 13.7073 6.81177 13.7477 6.86928C13.8573 6.88223 13.8683 6.86898 13.9217 6.94548C13.9565 6.99533 14.0261 7.00558 14.0768 7.03919C14.0789 7.04056 14.0815 7.04249 14.0836 7.04381C14.0857 7.04518 14.0886 7.04686 14.0908 7.04818L14.2932 7.14331C14.4001 7.10513 14.2257 7.18402 14.3156 7.12813C14.3575 7.10204 14.292 7.13463 14.3361 7.1161C14.3447 7.11249 14.3828 7.10564 14.3955 7.10224C14.4325 7.20083 14.4297 7.15407 14.4962 7.21834C14.4979 7.21996 14.5003 7.2223 14.5021 7.22392L14.5342 7.25763C14.5506 7.28514 14.5473 7.30403 14.5606 7.33281C14.6975 7.3619 14.6051 7.36429 14.7486 7.4186C14.7868 7.43307 14.7973 7.4546 14.8264 7.47384C14.8777 7.50775 14.9588 7.5276 15.014 7.55719C15.0808 7.59298 15.1016 7.5813 15.1794 7.59679L15.2076 7.60359C15.2091 7.60379 15.2125 7.6042 15.214 7.6044C15.2921 7.61324 15.2387 7.60872 15.307 7.62892C15.2945 7.66684 15.3002 7.62522 15.2951 7.65598L15.2963 7.69268C15.2997 7.6941 15.3046 7.69172 15.3068 7.69568C15.3128 7.70685 15.4105 7.70065 15.439 7.74045C15.4467 7.75121 15.4468 7.75649 15.4539 7.76964L15.4978 7.8496C15.6539 7.86351 15.6712 7.93463 15.6948 7.95915C15.7244 7.98996 15.7929 8.02082 15.829 8.04783L15.8667 8.08814C15.8684 8.09063 15.8711 8.09433 15.8727 8.09773L15.8729 8.09783ZM3.22962 0.525646C3.17179 0.556054 3.0995 0.549809 3.03307 0.583822C2.96467 0.618849 2.89274 0.629256 2.86087 0.660831C2.82445 0.696874 2.84865 0.689513 2.78227 0.702154C2.76574 0.705301 2.74884 0.706063 2.72625 0.715454C2.67899 0.735049 2.71485 0.721191 2.6907 0.737587C2.63515 0.775356 2.60204 0.758959 2.54012 0.775813C2.49001 0.789469 2.5396 0.772717 2.4985 0.793124C2.4584 0.813074 2.49876 0.797642 2.44948 0.812161C2.43482 0.816476 2.43767 0.813582 2.42197 0.820334L2.02861 1.06883C1.99757 1.09025 1.99757 1.10218 1.95783 1.12106C1.89968 1.14873 1.90735 1.11832 1.89968 1.18761C1.80258 1.19208 1.8588 1.19817 1.79584 1.24117C1.72184 1.29173 1.76283 1.26351 1.7293 1.33844L1.62898 1.37681C1.59307 1.38473 1.58753 1.40225 1.55882 1.44504C1.49648 1.53799 1.49602 1.44717 1.45093 1.53951C1.40689 1.62972 1.40461 1.57368 1.35263 1.64394L1.31626 1.69475C1.32014 1.75927 1.2621 1.84969 1.22153 1.89304L1.16785 1.9504C1.14121 1.96898 1.11432 1.98604 1.0968 2.01619C1.07799 2.04853 1.07789 2.08594 1.05908 2.11397C1.03068 2.15625 1.02783 2.12645 1.00731 2.19834C0.994252 2.24397 0.984666 2.24611 0.951346 2.27347C0.890096 2.32367 0.943314 2.3953 0.865638 2.45566C0.821902 2.48962 0.822628 2.53232 0.795164 2.5775C0.766767 2.6242 0.746195 2.69121 0.714948 2.73279C0.650796 2.81827 0.627789 3.0062 0.625975 3.11971C0.58908 3.139 0.587992 3.14926 0.570373 3.19286C0.521352 3.31419 0.548246 3.45674 0.545293 3.5873C0.439012 3.64589 0.488188 3.8128 0.43041 3.9021C0.390613 3.96362 0.409009 3.94555 0.401288 4.0319C0.397194 4.07784 0.382219 4.10683 0.383203 4.15536C0.384965 4.24003 0.381234 4.2013 0.371855 4.2776C0.364341 4.33898 0.380094 4.34923 0.353874 4.40548C0.325529 4.46619 0.324699 4.59082 0.315579 4.67133C0.308636 4.73281 0.32957 4.74128 0.31247 4.78839C0.297184 4.83048 0.280291 4.84368 0.27713 4.90038C0.266714 5.08689 0.28511 5.27984 0.226295 5.45112C0.211423 5.49448 0.21702 5.55316 0.216139 5.6025C0.201837 5.64763 0.215362 5.58991 0.194893 5.63068C0.151883 5.71632 0.197899 5.80505 0.179917 5.87389C0.175513 5.89069 0.160848 5.93907 0.165512 5.97776C0.183389 6.12629 0.160071 6.28112 0.160433 6.41504C0.160744 6.52627 0.158412 6.51931 0.131363 6.60683C0.0894933 6.74232 0.125922 7.35972 0.0987689 7.48841C0.0856068 7.55069 0.05151 7.61527 0.0421307 7.66431C0.0211441 7.77421 0.0443071 7.99585 0.0388661 8.11941C0.0354979 8.19632 0.0264296 8.14895 0.0189158 8.20809L0.00777477 9.92231C0.00777477 10.2075 -0.0107764 10.558 0.00943298 10.8352C0.0249268 11.0481 -0.00118991 12.0082 0.0352388 12.1757C0.0553964 12.2684 0.00855205 12.4058 0.0698539 12.4912C0.0989761 12.5318 0.106438 12.485 0.101204 12.4831C0.142556 12.5877 0.100323 12.7735 0.104054 12.8837L0.12701 13.2843C0.127217 13.379 0.133798 13.4101 0.147893 13.4784C0.168569 13.5789 0.142711 13.5761 0.152194 13.6623C0.161729 13.7492 0.15007 13.8685 0.164734 13.9641C0.174632 14.0286 0.183441 13.9966 0.185358 14.0524L0.180695 14.158C0.157169 14.2558 0.174891 14.3004 0.20733 14.412C0.223704 14.4683 0.213185 14.5592 0.229923 14.6039L0.267232 14.7756C0.282156 14.9081 0.250857 15.0889 0.290395 15.2212C0.291276 15.2242 0.292313 15.227 0.293245 15.2298C0.322989 15.3186 0.334752 15.4508 0.340038 15.5544C0.366103 15.5698 0.351024 15.5568 0.366932 15.5672L0.406625 15.9433C0.419269 15.9845 0.404501 15.9392 0.418336 15.966C0.434141 15.9966 0.427042 15.9671 0.436162 16.0223C0.442691 16.0619 0.45036 16.0931 0.460362 16.1334C0.478343 16.2058 0.462642 16.2451 0.499744 16.3088C0.554154 16.4024 0.536328 16.6379 0.550786 16.7364C0.561616 16.8101 0.571513 16.7437 0.586333 16.8357C0.593692 16.8812 0.598459 16.9357 0.605196 16.9709C0.623021 17.0643 0.640277 17.1029 0.663855 17.1908C0.672508 17.2231 0.694324 17.2647 0.704532 17.2781L0.777286 17.421C0.798843 17.4682 0.834857 17.493 0.849885 17.5502C0.870923 17.6304 0.921447 17.7179 0.972229 17.7729C1.00762 17.8112 1.02327 17.8661 1.05343 17.9054L1.12416 18.0381C1.13422 18.0555 1.14028 18.0709 1.15354 18.0875L1.16365 18.0983C1.19008 18.1245 1.20163 18.1237 1.22096 18.1557C1.24599 18.1971 1.25273 18.2148 1.2932 18.2473C1.34206 18.2866 1.33579 18.2639 1.38834 18.3232L1.62302 18.5829C1.6566 18.6163 1.67458 18.6241 1.72505 18.628L1.75231 18.6928C1.7806 18.7323 1.8219 18.7409 1.86963 18.7874L1.98327 18.8648C2.02851 18.9094 2.05856 18.9004 2.11043 18.9395C2.13064 18.9547 2.13334 18.9607 2.15168 18.9769L2.2677 19.0409C2.38284 19.1188 2.36569 19.0775 2.4614 19.1219L2.55255 19.1681C2.56317 19.1698 2.5866 19.1702 2.59888 19.1711V19.1886C2.70334 19.1944 2.69329 19.1741 2.75237 19.2245C2.7549 19.2267 2.76263 19.2331 2.76542 19.2351L2.8287 19.2731C2.873 19.2999 2.92871 19.2956 2.97146 19.3125C3.01156 19.3285 2.96938 19.3091 2.99762 19.3292C3.05841 19.3726 3.11567 19.3895 3.20091 19.3904C3.23102 19.3907 3.2689 19.3856 3.29626 19.3956C3.34134 19.412 3.27071 19.4163 3.37051 19.4222C3.57991 19.4344 3.50219 19.4352 3.63407 19.4652C3.6935 19.4787 3.79657 19.4769 3.84803 19.4995C3.95622 19.5472 3.80388 19.5094 3.88306 19.5221C3.94021 19.5313 4.25683 19.5174 4.38705 19.5625C4.43534 19.5792 4.35808 19.5819 4.54224 19.5906C4.55188 19.6065 4.54064 19.593 4.55297 19.6198C4.64122 19.6241 4.62381 19.6417 4.70133 19.6466L5.0067 19.6812C5.06494 19.691 5.12018 19.6842 5.17982 19.689C5.22444 19.6927 5.29652 19.7011 5.33259 19.7059C5.39897 19.7148 5.45716 19.7061 5.50204 19.7218C5.57982 19.749 5.74553 19.7347 5.83782 19.7341C5.91021 19.7336 5.93908 19.7293 5.99235 19.7549C6.03365 19.7747 6.10443 19.7623 6.15677 19.7677C6.25522 19.778 6.36207 19.7998 6.46514 19.8085C6.58873 19.8191 6.67833 19.7892 6.80492 19.7983C6.86347 19.8025 6.89353 19.8207 6.96224 19.8206C6.99266 19.8206 7.02349 19.8196 7.05381 19.8195L7.14464 19.8324C7.196 19.8384 7.19931 19.8533 7.25782 19.8543C7.42317 19.8572 7.53505 19.876 7.70154 19.8759C7.90571 19.8758 8.11392 19.8887 8.31524 19.8863C8.42483 19.885 8.51603 19.8878 8.61211 19.897C8.70673 19.906 8.82083 19.8973 8.91784 19.8993C9.03168 19.9015 9.0292 19.9224 9.2017 19.9222C9.29845 19.922 9.42395 19.9174 9.51769 19.9251C9.70289 19.9404 9.92338 19.9323 10.1223 19.9329C10.7323 19.9347 11.3486 19.9596 11.952 19.9584C12.0543 19.9582 12.1566 19.9575 12.2589 19.9576C12.3681 19.9578 12.4518 19.9768 12.5545 19.9686C12.6478 19.9612 12.7407 19.9584 12.8499 19.9584C12.8992 19.9584 12.9484 19.9585 12.9977 19.9584L13.14 19.9721C13.2244 19.9982 13.3472 19.977 13.4412 19.9798C13.5375 19.9827 13.5668 19.9994 13.725 20L15.6351 19.979C15.738 19.9693 15.6562 19.9565 15.8502 19.9588C15.9525 19.96 16.0548 19.9584 16.1571 19.9585L16.7672 19.9642C16.9486 19.9383 17.1824 19.9669 17.3737 19.9585C17.5623 19.9502 17.7706 19.9449 17.9755 19.9456C18.1967 19.9464 19.9015 19.9487 20.1074 19.9147C20.2143 19.8971 20.2911 19.9049 20.4081 19.9006C20.4692 19.8984 20.4808 19.8837 20.5332 19.8796C20.581 19.8759 20.6422 19.8796 20.6917 19.8797C20.8097 19.8798 20.8709 19.8625 20.9689 19.8505C21.0553 19.8399 21.1805 19.8467 21.2714 19.8468C21.3803 19.847 21.4651 19.8301 21.5782 19.8309C21.6927 19.8317 21.7656 19.8269 21.8742 19.8228C21.9892 19.8183 21.9799 19.7927 22.149 19.8067C22.1988 19.8108 22.8815 19.7766 22.9385 19.7619C23.047 19.7339 23.1774 19.7473 23.3061 19.7445C23.4082 19.7423 23.4786 19.71 23.5781 19.7094C23.6674 19.7087 23.8077 19.7068 23.8732 19.687C24.021 19.6425 24.4884 19.6612 24.7084 19.6022C24.8283 19.5701 24.8668 19.584 24.9991 19.5755C25.0941 19.5693 25.1781 19.5477 25.2712 19.5387C25.3166 19.5343 25.355 19.5241 25.3975 19.5168C25.4222 19.5126 25.4418 19.5106 25.4618 19.5032C25.4812 19.4959 25.4623 19.5033 25.4835 19.4926L25.5055 19.4807C25.5693 19.4557 25.7161 19.4545 25.7865 19.443C25.8514 19.4325 25.8557 19.42 25.9068 19.4051C25.9472 19.3932 25.9934 19.3851 26.0383 19.3784L26.0538 19.305C26.1214 19.3053 26.1601 19.2831 26.2153 19.2422L26.2454 19.2163C26.2471 19.215 26.2497 19.2128 26.2514 19.2116C26.2532 19.2103 26.2559 19.2083 26.2577 19.2072C26.2943 19.1856 26.3156 19.1994 26.3609 19.188L26.4652 19.168C26.4992 19.1601 26.4995 19.1477 26.5228 19.1317C26.5454 19.1162 26.5638 19.1201 26.597 19.1061C26.6455 19.0856 26.7144 19.0223 26.7606 18.9862C26.7625 18.9846 26.7652 18.9826 26.7671 18.9811L26.8284 18.9433C26.9004 18.9099 26.8973 18.8817 26.9357 18.8587L26.9735 18.8385C27.0045 18.8187 27.007 18.8077 27.0343 18.7873L27.1303 18.75C27.1564 18.7408 27.1315 18.7492 27.1545 18.7403L27.189 18.7272C27.2051 18.7212 27.2046 18.7053 27.2135 18.6912C27.2278 18.6683 27.2187 18.6807 27.2393 18.6646L27.2815 18.6263C27.3631 18.5362 27.3784 18.6622 27.4619 18.4772L27.548 18.3414C27.5626 18.3226 27.593 18.315 27.6224 18.3041C27.6289 18.2741 27.6303 18.2607 27.6357 18.2263L27.6698 18.2768L27.8688 18.078C27.9321 18.012 27.9599 17.9039 28.0115 17.8278C28.0359 17.7919 28.048 17.8054 28.0459 17.7491C28.0444 17.6718 28.0511 17.7159 28.0729 17.6531C28.0786 17.6367 28.0788 17.6263 28.0849 17.6096L28.0954 17.5869C28.1218 17.5377 28.1615 17.5049 28.1812 17.4579L28.3149 17.1877C28.3312 17.1445 28.3526 17.0778 28.3554 17.0255C28.3665 16.818 28.428 16.8557 28.4539 16.7263C28.4645 16.6731 28.4659 16.6018 28.4694 16.536C28.4778 16.3811 28.498 16.1834 28.5466 16.0335L28.5793 15.9574C28.5807 15.9557 28.5833 15.9536 28.5847 15.9519C28.5861 15.9501 28.5888 15.948 28.5902 15.9462C28.6276 15.8982 28.6439 15.5808 28.6502 15.5003C28.6568 15.4163 28.6715 15.4354 28.6654 15.3325C28.6613 15.2631 28.6751 15.2196 28.6768 15.1439C28.7199 15.1176 28.719 15.1388 28.7264 15.0769C28.7388 14.9729 28.7295 14.671 28.7502 14.6191C28.7837 14.5356 28.7691 14.5552 28.7923 14.4716C28.7989 14.4481 28.7972 14.4467 28.8005 14.4224L28.8405 14.1065C28.8505 14.0295 28.8333 13.9691 28.8339 13.886L28.8398 13.4756C28.8325 13.4353 28.8418 13.4794 28.8244 13.4469C28.8983 13.3916 28.8798 13.2439 28.8795 13.1176C28.879 12.9149 28.8749 13.0375 28.899 12.8949C28.9165 12.7909 28.8988 12.6763 28.9016 12.5718C28.9024 12.5416 28.9202 12.4347 28.9296 12.4132L28.9499 12.3797C28.9642 12.341 28.9562 12.2912 28.9563 12.2492C28.9564 12.1898 28.9573 12.1304 28.9561 12.071C28.9514 11.8302 28.9566 11.5669 28.9613 11.3251C28.966 11.0792 28.958 10.8268 28.9599 10.5792C28.9673 9.58798 28.9688 8.58614 28.9547 7.59537L28.9151 7.57308C28.9115 7.4115 28.9021 7.22585 28.8782 7.07259L28.8567 6.64947C28.858 6.61937 28.8592 6.61338 28.8527 6.58424C28.8211 6.44073 28.8575 6.01131 28.8364 5.81947C28.8174 5.64708 28.857 5.65499 28.7773 5.61357C28.7781 5.57007 28.7801 5.54199 28.7697 5.50676C28.7682 5.50174 28.7573 5.4759 28.7532 5.46696L28.7359 5.4294C28.7204 5.37401 28.7393 5.29335 28.7195 5.23157C28.7034 5.18085 28.7207 4.92348 28.7168 4.82307C28.6962 4.81525 28.7047 4.83053 28.6875 4.83418C28.6555 4.75707 28.6923 4.59001 28.6578 4.49101C28.6263 4.40096 28.6225 4.4634 28.6189 4.34349C28.6173 4.28826 28.5968 4.27552 28.5966 4.21191C28.5958 3.83864 28.5681 3.9953 28.5506 3.88682C28.5384 3.81052 28.5346 3.71792 28.5098 3.64487C28.4935 3.5972 28.505 3.63584 28.4701 3.59837C28.4587 3.56867 28.4563 3.29911 28.4345 3.21977C28.4337 3.21677 28.4328 3.21393 28.4318 3.21104L28.3777 3.11728C28.3648 3.09905 28.3574 3.03753 28.3568 2.99757C28.3561 2.94407 28.3524 2.91422 28.3304 2.87452C28.3299 2.87371 28.3079 2.82223 28.3074 2.82081C28.3015 2.8034 28.298 2.78345 28.2936 2.76781C28.2758 2.70568 28.2764 2.72111 28.2341 2.69659L28.2171 2.58481L28.1441 2.46566C28.1288 2.44774 28.121 2.44607 28.1148 2.43901C28.1058 2.42891 28.0844 2.38794 28.0784 2.36657C28.0704 2.3386 28.0749 2.3353 28.0638 2.3122C28.0459 2.2755 28.0624 2.30606 28.0376 2.28032C27.9736 2.21397 27.9688 2.11265 27.9152 2.04427C27.8792 1.99838 27.8319 1.96162 27.7809 1.92969C27.7324 1.89933 27.7461 1.88608 27.7105 1.84405L27.672 1.7709C27.6572 1.75181 27.6641 1.76415 27.653 1.7546C27.5483 1.66374 27.6797 1.7212 27.5559 1.66942C27.4899 1.64181 27.4925 1.60444 27.5026 1.5387C27.5001 1.53682 27.4961 1.53525 27.4942 1.53413L27.4417 1.48459C27.4117 1.44804 27.3874 1.44961 27.3387 1.42697C27.3045 1.41108 27.3382 1.42331 27.2942 1.41286C27.2443 1.40103 27.2591 1.42727 27.2439 1.366L27.2099 1.38377C27.1982 1.38793 27.2042 1.38636 27.1893 1.38595C27.191 1.38443 27.2046 1.40372 27.1968 1.35128C27.1925 1.32305 27.1751 1.31346 27.1572 1.29544L27.1473 1.28468C27.1457 1.28249 27.1371 1.26671 27.1343 1.26163C27.1127 1.22335 27.0371 1.23351 26.9755 1.19335L26.9487 1.17447C26.9157 1.15254 26.9273 1.18183 26.9094 1.1302C26.907 1.12325 26.9031 1.10629 26.9019 1.10345C26.8807 1.05365 26.84 1.05385 26.7805 1.05131C26.7773 1.01623 26.784 1.02273 26.7662 0.999989L26.7394 0.979125C26.6485 0.91171 26.6578 0.894145 26.5529 0.869931C26.5075 0.859422 26.5199 0.861808 26.4937 0.832416C26.4666 0.801957 26.4203 0.814749 26.3811 0.80419L26.2995 0.782616C26.2247 0.768706 26.1872 0.69591 26.1111 0.679513L26.0445 0.657989C26.0095 0.632099 25.9246 0.623367 25.8804 0.60631L25.8536 0.59768C25.8532 0.597579 25.8159 0.590421 25.8147 0.590218C25.7832 0.586055 25.7616 0.588035 25.7305 0.584228C25.6766 0.577628 25.628 0.55915 25.5748 0.548896C25.5091 0.536255 25.4894 0.553363 25.4134 0.538438C25.3856 0.532956 25.3605 0.524326 25.3293 0.524021C25.2508 0.523209 25.1819 0.488181 25.0905 0.485085C24.901 0.478688 25.0173 0.483257 24.9298 0.456555C24.9027 0.44828 24.8616 0.455438 24.8329 0.452139C24.7934 0.44757 24.8291 0.446199 24.7874 0.431173C24.7009 0.400003 24.4851 0.412542 24.4071 0.369748C24.2343 0.274767 23.6904 0.34863 23.4441 0.307104C23.3983 0.299388 23.4291 0.303754 23.4102 0.297713L23.374 0.287002C23.3152 0.275884 23.2597 0.276341 23.1918 0.276544C23.0074 0.277001 23.0691 0.287205 22.93 0.244816C22.9132 0.239689 22.8674 0.232227 22.8511 0.230704C22.6116 0.208469 22.3241 0.26634 22.0809 0.239841C21.9569 0.226338 21.8753 0.194965 21.737 0.195727C21.6514 0.196235 21.6367 0.188518 21.5642 0.17933C21.4359 0.163085 21.3224 0.176284 21.1983 0.15872C21.0489 0.137551 20.9467 0.17466 20.8193 0.162476C20.7618 0.156994 20.7062 0.154202 20.6347 0.154151C20.3973 0.153948 20.4716 0.0957716 20.2835 0.121154C20.2378 0.127296 20.0666 0.125418 20.0182 0.113082C19.9396 0.0930303 19.9231 0.104503 19.8553 0.113285C19.815 0.118514 19.8577 0.109376 19.7947 0.0989698C19.7456 0.0908982 19.6532 0.09633 19.6 0.0960762C19.5207 0.0956701 19.5057 0.0772933 19.419 0.0765318C19.3545 0.0759734 19.29 0.0752627 19.2255 0.0752627C18.929 0.075415 17.3563 0.0712523 17.1217 0.0438395C17.0452 0.0349049 17.0106 0.0498805 16.9415 0.0507942C16.8126 0.0524695 16.6837 0.0530786 16.5547 0.0516065C16.4259 0.0501343 16.2998 0.0355649 16.1791 0.042215C16.06 0.0488144 15.9375 0.0522664 15.8045 0.0528756L15.2361 0.0409459C15.13 0.0408444 15.1502 0.0308945 15.0743 0.0140407C14.9497 -0.0135752 14.6382 0.00794898 14.4859 0.00860892C14.4168 0.00891351 14.3765 0.0211985 14.3046 0.0209447C14.1319 0.0203355 13.6255 -0.0242357 13.503 0.0284071C13.4133 0.0669374 12.9169 0.0335851 12.7935 0.0446517C12.4275 0.0774456 12.0208 0.0443471 11.645 0.0421135C11.5275 0.0414536 11.4026 0.0549569 11.27 0.0557184C11.0149 0.0571398 10.7647 0.0325698 10.5218 0.0595765C10.3119 0.0828774 9.98914 0.0678004 9.75844 0.0680034C9.64247 0.0681049 9.07013 0.0737398 9.00821 0.0907967C8.90416 0.119428 8.38959 0.107447 8.23507 0.110696C8.12418 0.113032 7.98427 0.12689 7.87793 0.138058C7.63283 0.163745 7.36565 0.151308 7.12345 0.168314C7.01126 0.176183 6.86819 0.189686 6.75787 0.187503C6.59526 0.184254 6.6049 0.198367 6.49613 0.214358C6.47069 0.218114 6.43239 0.216794 6.40581 0.216693C6.27564 0.216185 6.15703 0.217708 6.03194 0.232125L5.84891 0.25172C5.78227 0.252126 5.72081 0.253802 5.66516 0.259893C5.53193 0.274361 5.44763 0.283905 5.30341 0.286646C5.17547 0.289083 5.08044 0.316902 4.9511 0.316699C4.68267 0.316242 4.49214 0.365484 4.25097 0.394064C4.20019 0.400105 4.13681 0.410867 4.07675 0.413405C4.01872 0.415842 3.94379 0.404217 3.89254 0.418989C3.84714 0.432087 3.79895 0.455997 3.74734 0.463256C3.68661 0.471784 3.53053 0.474424 3.47949 0.49209C3.44011 0.505695 3.48281 0.493106 3.44772 0.505035L3.41959 0.512954C3.356 0.527473 3.30569 0.525544 3.22941 0.525544L3.22962 0.525646Z" fill="#A5A5A5"/>
</svg>
